<svg width="54" height="58" viewBox="0 0 54 58" fill="none" xmlns="http://www.w3.org/2000/svg">
<path d="M47.8488 13.632H6.15084C5.24773 13.632 4.51562 14.4184 4.51562 15.3884V42.6116C4.51562 43.5816 5.24773 44.368 6.15084 44.368H47.8488C48.7519 44.368 49.484 43.5816 49.484 42.6116V15.3884C49.484 14.4184 48.7519 13.632 47.8488 13.632Z" fill="#F9F9F9"/>
<path d="M10.082 18.8888H10.4671V29.8712H10.082V18.8888ZM10.8522 18.8888H11.2373V29.8712H10.8522V18.8888ZM13.1644 18.8888H13.5495V29.8712H13.1644V18.8888ZM20.6602 18.8888H21.0453V29.8712H20.6602V18.8888ZM23.1662 18.8888H23.5513V29.8712H23.1662V18.8888ZM25.5961 18.8888H25.9812V29.8712H25.5961V18.8888ZM26.2224 18.8888H26.6075V29.8712H26.2224V18.8888ZM26.8495 18.8888H27.2346V29.8712H26.8495V18.8888ZM27.5543 18.8888H27.9394V29.8712H27.5543V18.8888ZM28.2591 18.8888H28.6441V29.8712H28.2591V18.8888ZM30.218 18.8888H30.6031V29.8712H30.218V18.8888ZM35.0754 18.8888H35.4605V29.8712H35.0754V18.8888ZM40.1421 18.8888H40.5272V29.8712H40.1421V18.8888ZM41.528 18.8888H41.9131V29.8712H41.528V18.8888ZM42.5296 18.8888H42.9146V29.8712H42.5296V18.8888ZM43.146 18.8888H43.5311V29.8712H43.146V18.8888ZM15.7072 18.8888H16.0923V29.8712H15.7072V18.8888ZM11.8538 18.8888H12.5471V29.8712H11.8538V18.8888ZM16.4299 18.8888H17.1233V29.8712H16.4299V18.8888ZM19.6431 18.8888H20.3364V29.8712H19.6431V18.8888ZM21.2881 18.8888H21.9815V29.8712H21.2881V18.8888ZM23.8734 18.8888H24.5667V29.8712H23.8734V18.8888ZM31.2441 18.8888H32.3226V29.8712H31.2441V18.8888ZM32.6529 18.8888H33.5007V29.8712H32.6529V18.8888ZM34.1393 18.8888H34.8326V29.8712H34.1393V18.8888ZM36.1048 18.8888H37.2609V29.8712H36.1048V18.8888ZM38.3688 18.8888H39.5248V29.8712H38.3688V18.8888ZM13.9346 18.8888H15.3213V29.8712H13.9346V18.8888ZM17.5288 18.8888H18.6072V29.8712H17.5288V18.8888Z" fill="#010101"/>
<path d="M10.5811 39.6223V33.3364H12.7771C13.1441 33.3212 13.5101 33.386 13.8531 33.527C14.116 33.6477 14.3377 33.8529 14.4876 34.1145C14.6361 34.362 14.7158 34.6499 14.7173 34.9443C14.7173 35.2128 14.6468 35.4758 14.5137 35.7031C14.364 35.9536 14.1506 36.1528 13.8989 36.2774C14.222 36.3665 14.5092 36.5666 14.7165 36.8473C14.9084 37.1213 15.0089 37.4566 15.0019 37.7993C15.0041 38.0837 14.9447 38.3648 14.8285 38.6204C14.7302 38.8496 14.5825 39.0504 14.3976 39.2061C14.2052 39.3542 13.9873 39.4599 13.7566 39.517C13.4473 39.5932 13.1304 39.6286 12.8131 39.6223H10.5811ZM11.3561 35.9779H12.6218C12.869 35.9884 13.1164 35.9639 13.3576 35.9051C13.5342 35.857 13.6907 35.7469 13.8024 35.5924C13.9064 35.4318 13.9589 35.2391 13.952 35.0436C13.9557 34.8494 13.9071 34.6583 13.8122 34.493C13.7217 34.336 13.581 34.2199 13.4165 34.1663C13.1247 34.0942 12.8253 34.0647 12.5261 34.0785H11.3561V35.9779ZM11.3561 38.8812H12.8131C12.9894 38.8861 13.1657 38.8761 13.3405 38.8513C13.4986 38.8238 13.6504 38.7642 13.7877 38.6757C13.9132 38.5886 14.015 38.4674 14.0829 38.3244C14.162 38.162 14.202 37.9808 14.199 37.7975C14.2044 37.5788 14.1458 37.3638 14.0314 37.1828C13.9185 37.009 13.7547 36.8807 13.5661 36.8184C13.2873 36.7374 12.9987 36.7019 12.7101 36.713H11.3561V38.8812ZM16.1334 36.561C16.0845 35.6654 16.3655 34.785 16.9159 34.1101C17.1752 33.8175 17.4894 33.5874 17.8376 33.4348C18.1859 33.2822 18.5603 33.2107 18.9362 33.2249C19.4495 33.2173 19.9549 33.3613 20.3972 33.6411C20.8272 33.9141 21.1723 34.3178 21.389 34.8012C21.6227 35.3276 21.7394 35.9051 21.7299 36.4882C21.7395 37.081 21.6164 37.6677 21.371 38.1988C21.1485 38.6823 20.7932 39.0808 20.3531 39.3405C19.9181 39.5981 19.4288 39.7317 18.9321 39.7286C18.4123 39.7378 17.9005 39.5896 17.4555 39.3009C17.0273 39.0221 16.6842 38.6149 16.4686 38.1295C16.2465 37.6411 16.1318 37.1045 16.1334 36.561ZM16.9322 36.5742C16.8989 37.2283 17.1042 37.8706 17.5045 38.3648C17.6851 38.5772 17.9059 38.7455 18.1522 38.8584C18.3985 38.9712 18.6644 39.026 18.9321 39.019C19.2014 39.0264 19.469 38.9711 19.7165 38.857C19.964 38.7428 20.1856 38.5725 20.3662 38.3578C20.77 37.8333 20.9721 37.163 20.9311 36.4838C20.9418 36.024 20.8607 35.567 20.6932 35.1437C20.5455 34.7786 20.2995 34.4694 19.9868 34.2559C19.6743 34.0449 19.3117 33.9355 18.9427 33.9406C18.6812 33.9363 18.4215 33.9878 18.1786 34.0919C17.9356 34.1961 17.7143 34.3509 17.5274 34.5474C17.3063 34.8246 17.1396 35.147 17.0373 35.4951C16.935 35.8433 16.8993 36.21 16.9322 36.5733V36.5742ZM22.9997 39.6223V33.3364H23.7739V38.8803H26.656V39.6223H22.9997ZM27.8971 39.6223V33.3364H32.1291V34.0785H28.6714V36.0034H31.9091V36.7411H28.6714V38.8803H32.2648V39.6223H27.8971ZM35.1264 39.6223V34.0785H33.1977V33.3364H37.8368V34.0785H35.9007V39.6223H35.1264ZM38.5505 36.561C38.502 35.6652 38.7837 34.7847 39.3346 34.1101C39.594 33.8175 39.9082 33.5874 40.2564 33.4348C40.6047 33.2822 40.9791 33.2107 41.3549 33.2249C41.8683 33.2173 42.3737 33.3613 42.816 33.6411C43.246 33.9141 43.5911 34.3178 43.8078 34.8012C44.0414 35.3276 44.1581 35.9051 44.1487 36.4882C44.1583 37.081 44.0352 37.6677 43.7898 38.1988C43.5665 38.6832 43.21 39.082 42.7686 39.3413C42.3335 39.5989 41.8443 39.7326 41.3476 39.7295C40.8274 39.7386 40.3153 39.5901 39.8702 39.3009C39.4428 39.0217 39.1007 38.6146 38.8858 38.1295C38.6637 37.6411 38.549 37.1045 38.5505 36.561ZM39.3493 36.5742C39.3161 37.2283 39.5214 37.8706 39.9217 38.3648C40.1022 38.5772 40.3231 38.7455 40.5693 38.8584C40.8156 38.9712 41.0815 39.026 41.3492 39.019C41.6193 39.0273 41.8878 38.9725 42.1362 38.8585C42.3846 38.7445 42.6071 38.5739 42.7882 38.3587C43.192 37.8342 43.3941 37.1638 43.3532 36.4846C43.3615 36.0243 43.2779 35.5673 43.1079 35.1446C42.9602 34.7795 42.7142 34.4703 42.4015 34.2567C42.089 34.0458 41.7264 33.9363 41.3574 33.9415C41.0959 33.9372 40.8361 33.9886 40.5932 34.0928C40.3503 34.197 40.129 34.3518 39.9421 34.5483C39.7214 34.8255 39.555 35.1478 39.453 35.4958C39.351 35.8438 39.3155 36.2103 39.3485 36.5733L39.3493 36.5742Z" fill="black"/>
</svg>
