<svg width="50" height="48" viewBox="0 0 50 48" fill="none" xmlns="http://www.w3.org/2000/svg">
<g clip-path="url(#clip0_8285_3058)">
<path d="M47.3333 8.928H2.66667C1.19391 8.928 0 10.0741 0 11.488V36.512C0 37.9258 1.19391 39.072 2.66667 39.072H47.3333C48.8061 39.072 50 37.9258 50 36.512V11.488C50 10.0741 48.8061 8.928 47.3333 8.928Z" fill="black"/>
<path d="M28.9339 24C28.9339 30.3451 23.5758 35.4883 16.9667 35.4883C10.3575 35.4883 5 30.3451 5 24C5 17.6555 10.3575 12.5117 16.9667 12.5117C23.5758 12.5117 28.9339 17.6555 28.9339 24Z" fill="#D9222A"/>
<path d="M33.0327 12.5117C29.9408 12.5117 27.1233 13.6379 24.9994 15.4856C24.5669 15.8621 24.163 16.2688 23.7911 16.7013H26.2089C26.5394 17.0872 26.8439 17.4931 27.1211 17.9181H22.8788C22.6247 18.3088 22.3939 18.7147 22.1894 19.1347H27.8102C28.0022 19.5288 28.1716 19.9344 28.3169 20.3509H21.6827C21.5444 20.7472 21.428 21.1528 21.335 21.5675H28.6644C28.8402 22.3515 28.9339 23.1653 28.9339 24C28.9339 25.2757 28.7169 26.5032 28.3169 27.6493H21.6827C21.8277 28.0661 21.9972 28.472 22.1891 28.8659H27.8102C27.6052 29.2859 27.375 29.6917 27.1205 30.0827H22.8788C23.1558 30.5069 23.4608 30.9133 23.7911 31.2984H26.2083C25.8369 31.7317 25.4327 32.1389 24.9997 32.5152C27.1236 34.3627 29.9408 35.4883 33.0327 35.4883C39.6419 35.4883 45 30.3451 45 24C45 17.6557 39.6419 12.5117 33.0327 12.5117Z" fill="#EE9F2D"/>
<path d="M43.4053 30.4037C43.4053 30.1989 43.5781 30.0325 43.7917 30.0325C44.0053 30.0325 44.1781 30.1989 44.1781 30.4037C44.1781 30.6085 44.0053 30.7749 43.7917 30.7749C43.5781 30.7749 43.4053 30.6085 43.4053 30.4037ZM43.7917 30.6859C43.9539 30.6859 44.0856 30.5595 44.0856 30.4037C44.0856 30.2477 43.9539 30.1219 43.7917 30.1219C43.6292 30.1219 43.4981 30.2477 43.4981 30.4037C43.4981 30.5595 43.6292 30.6859 43.7917 30.6859ZM43.7394 30.5669H43.6603V30.2408H43.8036C43.8336 30.2408 43.8642 30.2408 43.8906 30.2571C43.9181 30.2749 43.9336 30.3064 43.9336 30.3389C43.9336 30.3755 43.9111 30.4096 43.8747 30.4229L43.9372 30.5669H43.8494L43.7975 30.4379H43.7394V30.5669ZM43.7394 30.3819H43.7833C43.7997 30.3819 43.8169 30.3832 43.8317 30.3755C43.8447 30.3675 43.8514 30.3525 43.8514 30.3381C43.8514 30.3256 43.8433 30.3112 43.8322 30.3051C43.8183 30.2968 43.7964 30.2987 43.7817 30.2987H43.7394V30.3819Z" fill="black"/>
<path d="M14.1722 25.2579C14.0358 25.2427 13.9758 25.2387 13.8822 25.2387C13.1458 25.2387 12.773 25.4811 12.773 25.9597C12.773 26.2549 12.9549 26.4427 13.2388 26.4427C13.768 26.4427 14.1494 25.9589 14.1722 25.2579ZM15.1169 27.3696H14.0405L14.0652 26.8784C13.7369 27.2667 13.2988 27.4512 12.7035 27.4512C11.9994 27.4512 11.5166 26.9232 11.5166 26.1565C11.5166 25.0029 12.3563 24.3299 13.7977 24.3299C13.9449 24.3299 14.1338 24.3427 14.3272 24.3664C14.3674 24.2101 14.378 24.1432 14.378 24.0592C14.378 23.7451 14.1516 23.628 13.5447 23.628C12.9091 23.6211 12.3849 23.7733 12.1697 23.8413C12.1833 23.7627 12.3497 22.7752 12.3497 22.7752C12.9972 22.5931 13.4241 22.5245 13.9047 22.5245C15.0202 22.5245 15.611 23.0053 15.6099 23.9141C15.6122 24.1576 15.5702 24.4581 15.5047 24.8531C15.3919 25.5397 15.1499 27.0109 15.1169 27.3696Z" fill="black"/>
<path d="M10.9734 27.3696H9.67423L10.4184 22.8899L8.75673 27.3696H7.87145L7.76201 22.9155L6.97978 27.3696H5.76367L6.77951 21.5421H8.64756L8.76089 24.804L9.90034 21.5421H11.9781L10.9734 27.3696Z" fill="black"/>
<path d="M34.6388 25.2579C34.503 25.2427 34.4427 25.2387 34.3494 25.2387C33.6133 25.2387 33.2405 25.4811 33.2405 25.9597C33.2405 26.2549 33.4222 26.4427 33.706 26.4427C34.2352 26.4427 34.6169 25.9589 34.6388 25.2579ZM35.5844 27.3696H34.508L34.5324 26.8784C34.2041 27.2667 33.7658 27.4512 33.171 27.4512C32.4666 27.4512 31.9844 26.9232 31.9844 26.1565C31.9844 25.0029 32.8235 24.3299 34.2652 24.3299C34.4124 24.3299 34.601 24.3427 34.7941 24.3664C34.8344 24.2101 34.8449 24.1432 34.8449 24.0592C34.8449 23.7451 34.6188 23.628 34.0119 23.628C33.3763 23.6211 32.8527 23.7733 32.6366 23.8413C32.6502 23.7627 32.8172 22.7752 32.8172 22.7752C33.4647 22.5931 33.8913 22.5245 34.3713 22.5245C35.4874 22.5245 36.0783 23.0053 36.0772 23.9141C36.0794 24.1576 36.0374 24.4581 35.9719 24.8531C35.8597 25.5397 35.6172 27.0109 35.5844 27.3696Z" fill="black"/>
<path d="M20.8913 27.2976C20.5357 27.4051 20.2585 27.4512 19.9579 27.4512C19.2938 27.4512 18.9313 27.0848 18.9313 26.4101C18.9218 26.2008 19.0268 25.6499 19.1093 25.1469C19.1843 24.7043 19.6726 21.9131 19.6726 21.9131H20.964L20.8132 22.6304H21.5932L21.4171 23.7693H20.6343C20.4843 24.6707 20.2707 25.7933 20.2682 25.9421C20.2682 26.1864 20.404 26.2931 20.7129 26.2931C20.861 26.2931 20.9757 26.2787 21.0632 26.2483L20.8913 27.2976Z" fill="black"/>
<path d="M24.8506 27.2592C24.407 27.3893 23.979 27.4523 23.5253 27.4512C22.0798 27.4499 21.3262 26.7251 21.3262 25.3371C21.3262 23.7171 22.2848 22.5245 23.5862 22.5245C24.6509 22.5245 25.3309 23.1923 25.3309 24.2395C25.3309 24.5869 25.2842 24.9261 25.1717 25.4051H22.6001C22.5131 26.0925 22.9714 26.3789 23.7226 26.3789C24.1848 26.3789 24.6017 26.2875 25.0653 26.0805L24.8506 27.2592ZM24.1248 24.4496C24.132 24.3509 24.2617 23.6037 23.524 23.6037C23.1126 23.6037 22.8184 23.9048 22.6987 24.4496H24.1248Z" fill="black"/>
<path d="M15.896 24.1285C15.896 24.728 16.1987 25.1413 16.8854 25.4517C17.4115 25.6891 17.4929 25.7595 17.4929 25.9747C17.4929 26.2701 17.261 26.4035 16.7468 26.4035C16.3593 26.4035 15.9987 26.3453 15.5829 26.2165C15.5829 26.2165 15.4121 27.2611 15.4043 27.3109C15.6996 27.3728 15.9629 27.4301 16.7562 27.4512C18.1271 27.4512 18.7601 26.9501 18.7601 25.8672C18.7601 25.216 18.4951 24.8339 17.8443 24.5467C17.2996 24.3067 17.2371 24.2531 17.2371 24.0317C17.2371 23.7755 17.4529 23.6448 17.8729 23.6448C18.1279 23.6448 18.4762 23.6709 18.8062 23.716L18.9912 22.6168C18.6549 22.5656 18.1449 22.5245 17.8479 22.5245C16.3946 22.5245 15.8915 23.2533 15.896 24.1285Z" fill="black"/>
<path d="M31.1687 22.6491C31.5295 22.6491 31.8659 22.74 32.3295 22.964L32.542 21.6992C32.3517 21.6275 31.6817 21.2064 31.1142 21.2064C30.2448 21.2064 29.5098 21.6205 28.9928 22.304C28.2389 22.0643 27.9289 22.5488 27.5489 23.0315L27.2114 23.1069C27.237 22.948 27.26 22.7901 27.2523 22.6304H26.0592C25.8962 24.0971 25.6073 25.5827 25.3812 27.0512L25.3223 27.3696H26.622C26.8389 26.0165 26.9578 25.1501 27.03 24.5637L27.5195 24.3024C27.5925 24.0413 27.8214 23.9531 28.2806 23.9637C28.2206 24.2731 28.1884 24.5984 28.1884 24.9355C28.1884 26.4859 29.0598 27.4512 30.4584 27.4512C30.8187 27.4512 31.1278 27.4056 31.6064 27.2811L31.835 25.9525C31.4045 26.156 31.0512 26.2517 30.7312 26.2517C29.9759 26.2517 29.5189 25.7165 29.5189 24.832C29.5189 23.5488 30.1987 22.6491 31.1687 22.6491Z" fill="black"/>
<path d="M11.3474 27.0235H10.048L10.7927 22.5443L9.13103 27.0235H8.24547L8.13603 22.5699L7.35381 27.0235H6.1377L7.15353 21.1968H9.02158L9.07408 24.804L10.3344 21.1968H12.3521L11.3474 27.0235Z" fill="white"/>
<path d="M42.1684 21.5421L41.8804 23.2259C41.5251 22.7771 41.1434 22.4523 40.6395 22.4523C39.984 22.4523 39.3873 22.9293 38.9967 23.6315C38.4529 23.5232 37.8904 23.3395 37.8904 23.3395L37.8901 23.3437C37.934 22.9512 37.9515 22.7117 37.9476 22.6304H36.7542C36.5917 24.0971 36.3029 25.5827 36.077 27.0512L36.0176 27.3696H37.317C37.4926 26.2755 37.627 25.3669 37.7259 24.6464C38.1698 24.2613 38.392 23.9253 38.8406 23.9477C38.642 24.4088 38.5256 24.94 38.5256 25.4848C38.5256 26.6696 39.1501 27.4512 40.0945 27.4512C40.5706 27.4512 40.9359 27.2936 41.2923 26.9283L41.2315 27.3688H42.4604L43.4498 21.5421H42.1684ZM40.5437 26.2744C40.1015 26.2744 39.8781 25.9603 39.8781 25.3403C39.8781 24.4088 40.2962 23.7483 40.8856 23.7483C41.332 23.7483 41.5737 24.0749 41.5737 24.6768C41.5737 25.6163 41.149 26.2744 40.5437 26.2744Z" fill="black"/>
<path d="M14.5466 24.9125C14.4105 24.8973 14.3502 24.8933 14.2569 24.8933C13.5205 24.8933 13.148 25.1357 13.148 25.6144C13.148 25.9091 13.3299 26.0973 13.6133 26.0973C14.143 26.0973 14.5244 25.6136 14.5466 24.9125ZM15.4919 27.0235H14.4155L14.4399 26.5331C14.1119 26.9205 13.6733 27.1059 13.0785 27.1059C12.3741 27.1059 11.8916 26.5779 11.8916 25.8112C11.8916 24.6571 12.731 23.9845 14.1727 23.9845C14.3199 23.9845 14.5088 23.9973 14.7019 24.0211C14.7422 23.8648 14.7527 23.7979 14.7527 23.7133C14.7527 23.3992 14.5266 23.2827 13.9197 23.2827C13.2838 23.2757 12.7599 23.428 12.5444 23.4952C12.558 23.4168 12.7244 22.4304 12.7244 22.4304C13.3716 22.2475 13.7991 22.1789 14.2791 22.1789C15.3949 22.1789 15.986 22.66 15.9849 23.568C15.9869 23.8125 15.9447 24.1128 15.8794 24.5072C15.7669 25.1936 15.5247 26.6656 15.4919 27.0235Z" fill="white"/>
<path d="M32.9164 21.3536L32.7036 22.6187C32.2403 22.3949 31.9036 22.3037 31.5431 22.3037C30.5731 22.3037 29.8931 23.2035 29.8931 24.4867C29.8931 25.3712 30.3503 25.9061 31.1053 25.9061C31.4253 25.9061 31.7783 25.8107 32.2089 25.6069L31.9808 26.9349C31.5019 27.0603 31.1931 27.1059 30.8325 27.1059C29.4342 27.1059 28.5625 26.1405 28.5625 24.5901C28.5625 22.5069 29.7664 21.0509 31.4883 21.0509C32.0556 21.0509 32.7258 21.2819 32.9164 21.3536Z" fill="white"/>
<path d="M35.0124 24.9125C34.8763 24.8973 34.8163 24.8933 34.7227 24.8933C33.9866 24.8933 33.6138 25.1357 33.6138 25.6144C33.6138 25.9091 33.7958 26.0973 34.0794 26.0973C34.6085 26.0973 34.9902 25.6136 35.0124 24.9125ZM35.9577 27.0235H34.881L34.9058 26.5331C34.5774 26.9205 34.1391 27.1059 33.5444 27.1059C32.8402 27.1059 32.3574 26.5779 32.3574 25.8112C32.3574 24.6571 33.1971 23.9845 34.6383 23.9845C34.7858 23.9845 34.9744 23.9973 35.1677 24.0211C35.2077 23.8648 35.2185 23.7979 35.2185 23.7133C35.2185 23.3992 34.9924 23.2827 34.3855 23.2827C33.7499 23.2757 33.2258 23.428 33.0102 23.4952C33.0238 23.4168 33.1905 22.4304 33.1905 22.4304C33.8377 22.2475 34.2649 22.1789 34.7449 22.1789C35.861 22.1789 36.4519 22.66 36.4505 23.568C36.4527 23.8125 36.4108 24.1128 36.3452 24.5072C36.233 25.1936 35.9902 26.6656 35.9577 27.0235Z" fill="white"/>
<path d="M21.2652 26.9517C20.9094 27.0592 20.6322 27.1059 20.3319 27.1059C19.6677 27.1059 19.3052 26.7395 19.3052 26.0648C19.2961 25.8549 19.4011 25.3045 19.4836 24.8016C19.5583 24.3584 20.0466 21.5675 20.0466 21.5675H21.3377L21.1872 22.2851H21.85L21.6736 23.4235H21.0086C20.8586 24.3253 20.6444 25.4472 20.6422 25.5963C20.6422 25.8413 20.7783 25.9472 21.0869 25.9472C21.235 25.9472 21.3494 25.9333 21.4372 25.9029L21.2652 26.9517Z" fill="white"/>
<path d="M25.2246 26.9139C24.7813 27.044 24.3527 27.1067 23.8994 27.1059C22.4538 27.1045 21.7002 26.3797 21.7002 24.9917C21.7002 23.3712 22.6588 22.1789 23.9602 22.1789C25.0249 22.1789 25.7049 22.8464 25.7049 23.8941C25.7049 24.2419 25.6583 24.5811 25.546 25.0597H22.9744C22.8874 25.7472 23.3458 26.0339 24.0969 26.0339C24.5588 26.0339 24.976 25.9421 25.4394 25.7347L25.2246 26.9139ZM24.4985 24.1035C24.5063 24.0051 24.6358 23.2576 23.8977 23.2576C23.4866 23.2576 23.1924 23.5595 23.0727 24.1035H24.4985Z" fill="white"/>
<path d="M16.2707 23.7832C16.2707 24.3827 16.5735 24.7955 17.2601 25.1064C17.7862 25.3437 17.8676 25.4144 17.8676 25.6293C17.8676 25.9248 17.6354 26.0581 17.1218 26.0581C16.734 26.0581 16.3735 26 15.9574 25.8712C15.9574 25.8712 15.7871 26.9157 15.7793 26.9656C16.074 27.0275 16.3376 27.084 17.131 27.1059C18.5021 27.1059 19.1349 26.6048 19.1349 25.5221C19.1349 24.8707 18.8701 24.4885 18.219 24.2013C17.6746 23.9608 17.6115 23.908 17.6115 23.6864C17.6115 23.4304 17.8279 23.2987 18.2476 23.2987C18.5024 23.2987 18.8507 23.3256 19.1812 23.3707L19.366 22.2712C19.0299 22.22 18.5199 22.1789 18.2229 22.1789C16.7693 22.1789 16.2665 22.9072 16.2707 23.7832Z" fill="white"/>
<path d="M42.8339 27.0235H41.6047L41.6658 26.5824C41.3094 26.9483 40.9441 27.1059 40.468 27.1059C39.5236 27.1059 38.8994 26.3243 38.8994 25.1395C38.8994 23.5632 39.8675 22.2344 41.0133 22.2344C41.5172 22.2344 41.8986 22.432 42.2536 22.8805L42.5419 21.1968H43.8233L42.8339 27.0235ZM40.9175 25.9285C41.5225 25.9285 41.9475 25.2704 41.9475 24.3315C41.9475 23.7296 41.7055 23.4029 41.2591 23.4029C40.67 23.4029 40.2514 24.0632 40.2514 24.9949C40.2514 25.6149 40.4753 25.9285 40.9175 25.9285Z" fill="white"/>
<path d="M37.1285 22.2851C36.9658 23.7517 36.6769 25.2373 36.451 26.7051L36.3916 27.0235H37.691C38.1558 24.1259 38.2683 23.56 38.9969 23.6309C39.113 23.0379 39.3291 22.5184 39.4902 22.2563C38.946 22.1475 38.6422 22.4427 38.2444 23.0035C38.2758 22.7611 38.3333 22.5256 38.3219 22.2851H37.1285Z" fill="white"/>
<path d="M26.4332 22.2851C26.2702 23.7517 25.9813 25.2373 25.7555 26.7051L25.6963 27.0235H26.9963C27.4605 24.1259 27.5727 23.56 28.301 23.6309C28.4177 23.0379 28.6338 22.5184 28.7943 22.2563C28.2507 22.1475 27.9466 22.4427 27.5491 23.0035C27.5805 22.7611 27.6374 22.5256 27.6266 22.2851H26.4332Z" fill="white"/>
<path d="M43.4043 26.6525C43.4043 26.4469 43.5774 26.2813 43.7907 26.2813C44.0043 26.2813 44.1771 26.4469 44.1771 26.6525C44.1771 26.8571 44.0043 27.0235 43.7907 27.0235C43.5774 27.0235 43.4043 26.8571 43.4043 26.6525ZM43.7907 26.9344C43.9532 26.9344 44.0843 26.808 44.0843 26.6525C44.0843 26.4968 43.9532 26.3704 43.7907 26.3704C43.6285 26.3704 43.4968 26.4968 43.4968 26.6525C43.4968 26.808 43.6285 26.9344 43.7907 26.9344ZM43.7385 26.8147H43.6593V26.4893H43.8029C43.8326 26.4893 43.8635 26.4899 43.8893 26.5056C43.9171 26.5237 43.9329 26.5547 43.9329 26.5872C43.9329 26.624 43.9104 26.6584 43.8737 26.6715L43.9365 26.8147H43.8485L43.7965 26.6861H43.7385V26.8147ZM43.7385 26.6304H43.7821C43.7985 26.6304 43.8162 26.6315 43.8307 26.624C43.8437 26.616 43.8504 26.6008 43.8504 26.5864C43.8504 26.5744 43.8426 26.56 43.8312 26.5528C43.8176 26.5453 43.7951 26.5475 43.7804 26.5475H43.7385V26.6304Z" fill="white"/>
</g>
<defs>
<clipPath id="clip0_8285_3058">
<rect width="50" height="48" fill="white"/>
</clipPath>
</defs>
</svg>
