<svg width="31" height="30" viewBox="0 0 31 30" fill="none" xmlns="http://www.w3.org/2000/svg">
<path d="M7.68526 7.49999H7.24609L12.4386 2.47499C14.1307 0.843744 16.869 0.843744 18.5611 2.47499L23.7536 7.49999H23.3144C22.2811 7.49999 21.3059 7.88749 20.5761 8.59999L16.1844 12.8312C15.8034 13.2 15.1963 13.2 14.8153 12.8312L10.4236 8.59999C9.6938 7.88749 8.71859 7.49999 7.68526 7.49999Z" fill="#4DB6AC"/>
<path d="M23.3144 22.5H23.7536L18.5611 27.525C16.869 29.1562 14.1307 29.1562 12.4386 27.525L7.24609 22.5H7.68526C8.71859 22.5 9.6938 22.1125 10.4236 21.4L14.8153 17.1687C15.1963 16.8 15.8034 16.8 16.1844 17.1687L20.5761 21.4C21.3059 22.1125 22.2811 22.5 23.3144 22.5Z" fill="#4DB6AC"/>
<path d="M28.4422 17.9625L25.0451 21.25H23.3143C22.6232 21.25 21.9774 20.9875 21.4866 20.5188L17.0949 16.2812C16.2166 15.4312 14.7828 15.4312 13.9045 16.2812L9.51281 20.5188C9.02198 20.9875 8.37614 21.25 7.6851 21.25H5.95427L2.55719 17.9625C0.871563 16.325 0.871563 13.675 2.55719 12.0375L5.95427 8.75H7.6851C8.37614 8.75 9.02198 9.0125 9.51281 9.48125L13.9045 13.7188C14.3436 14.1438 14.9249 14.3562 15.4997 14.3562C16.0745 14.3562 16.6557 14.1438 17.0949 13.7188L21.4866 9.48125C21.9774 9.0125 22.6232 8.75 23.3143 8.75H25.0451L28.4422 12.0375C30.1278 13.675 30.1278 16.325 28.4422 17.9625Z" fill="#4DB6AC"/>
</svg>
