<svg width="23" height="23" viewBox="0 0 23 23" fill="none" xmlns="http://www.w3.org/2000/svg">
<circle cx="11.5" cy="11.5" r="11" fill="white" stroke="black"/>
<path d="M12 15.3945C12.4362 15.3945 12.7782 15.4836 13.0469 15.6377C13.3249 15.7972 13.3349 15.9086 13.335 15.9473C13.335 15.9859 13.3251 16.0972 13.0469 16.2568C12.7782 16.411 12.4362 16.5 12 16.5C11.5638 16.5 11.2218 16.411 10.9531 16.2568C10.6749 16.0972 10.665 15.9859 10.665 15.9473C10.6651 15.9086 10.6751 15.7972 10.9531 15.6377C11.2218 15.4836 11.5638 15.3945 12 15.3945ZM12 7.5C13.5642 7.5 14.6957 7.75166 15.4492 8.19922C16.2282 8.66197 16.4999 9.14143 16.5 9.61816C16.5 9.91451 16.3958 10.1604 16.1631 10.3809C15.8788 10.6501 15.4044 10.9787 14.7139 11.3662C14.3332 11.5758 14.0173 11.7661 13.7715 11.9355C13.5364 12.0976 13.3251 12.268 13.1934 12.4443C12.9851 12.7232 12.8317 12.9475 12.6504 13.1221C12.4833 13.2829 12.3498 13.3418 12.2109 13.3418H12.0342C11.8051 13.3417 11.5874 13.2406 11.46 13.1045C11.3436 12.98 11.3254 12.8627 11.376 12.7451C11.4022 12.6842 11.4289 12.6364 11.4551 12.5996C11.6017 12.3937 11.9752 12.0984 12.6826 11.7354L12.6836 11.7363C13.319 11.4163 13.8221 11.1285 14.1807 10.875C14.5913 10.5846 14.8857 10.1849 14.8857 9.6709C14.8857 9.06997 14.5163 8.63167 14 8.34082C13.4743 8.04469 12.7919 7.9209 12 7.9209C11.1754 7.9209 10.4677 8.06291 9.94434 8.41406C9.83776 8.48559 9.73693 8.55859 9.64258 8.63281C9.28661 8.9128 8.92016 9.03479 8.6377 8.96582C8.409 8.90978 8.28773 8.76436 8.25391 8.6582C8.23794 8.60793 8.24042 8.56869 8.25098 8.53906C8.26095 8.51121 8.28852 8.46254 8.37109 8.40918C8.55193 8.29234 8.75585 8.1789 8.9834 8.06934C9.75185 7.69938 10.7494 7.5 12 7.5Z" fill="white" stroke="black"/>
</svg>
