<svg width="30" height="30" viewBox="0 0 30 30" fill="none" xmlns="http://www.w3.org/2000/svg">
<path d="M25.0378 11.9133L15.6628 21.2883C15.5758 21.3754 15.4724 21.4446 15.3586 21.4918C15.2447 21.539 15.1227 21.5632 14.9995 21.5632C14.8763 21.5632 14.7543 21.539 14.6405 21.4918C14.5267 21.4446 14.4233 21.3754 14.3363 21.2883L4.96126 11.9133C4.78535 11.7374 4.68652 11.4988 4.68652 11.25C4.68652 11.0012 4.78535 10.7626 4.96126 10.5867C5.13718 10.4108 5.37577 10.312 5.62454 10.312C5.87332 10.312 6.11191 10.4108 6.28783 10.5867L14.9995 19.2996L23.7113 10.5867C23.7984 10.4996 23.9018 10.4305 24.0156 10.3834C24.1294 10.3362 24.2514 10.312 24.3745 10.312C24.4977 10.312 24.6197 10.3362 24.7335 10.3834C24.8473 10.4305 24.9507 10.4996 25.0378 10.5867C25.1249 10.6738 25.194 10.7772 25.2412 10.891C25.2883 11.0048 25.3126 11.1268 25.3126 11.25C25.3126 11.3732 25.2883 11.4952 25.2412 11.609C25.194 11.7228 25.1249 11.8262 25.0378 11.9133Z" fill="#131D4F"/>
</svg>
