<svg width="50" height="30" viewBox="0 0 50 30" fill="none" xmlns="http://www.w3.org/2000/svg">
<g clip-path="url(#clip0_8285_3019)">
<path d="M47.3333 0H2.66667C1.19391 0 0 1.14068 0 2.54777V27.4522C0 28.8593 1.19391 30 2.66667 30H47.3333C48.8061 30 50 28.8593 50 27.4522V2.54777C50 1.14068 48.8061 0 47.3333 0Z" fill="#0E4595"/>
<path d="M18.5469 21.2884L20.7709 8.81946H24.3282L22.1026 21.2884H18.5469Z" fill="white"/>
<path d="M34.9543 9.08838C34.2495 8.83576 33.1452 8.56468 31.7661 8.56468C28.2511 8.56468 25.7751 10.2558 25.7541 12.6796C25.7343 14.4712 27.5217 15.4707 28.871 16.0672C30.2556 16.6783 30.7211 17.0681 30.7145 17.6139C30.7057 18.4496 29.6088 18.8315 28.5863 18.8315C27.1625 18.8315 26.4061 18.6425 25.2379 18.177L24.7795 17.9788L24.2803 20.7701C25.1111 21.1181 26.6475 21.4197 28.2428 21.4353C31.9821 21.4353 34.4095 19.7635 34.4371 17.1753C34.4505 15.7569 33.5028 14.6774 31.4505 13.7875C30.2071 13.2107 29.4457 12.8258 29.4537 12.2418C29.4537 11.7235 30.0983 11.1693 31.4909 11.1693C32.6541 11.152 33.4967 11.3944 34.1533 11.647L34.4721 11.7909L34.9543 9.08838Z" fill="white"/>
<path d="M44.1074 8.81946H41.3586C40.5071 8.81946 39.8699 9.0415 39.4959 9.85347L34.2129 21.2804H37.9483C37.9483 21.2804 38.5591 19.744 38.6972 19.4067C39.1054 19.4067 42.7342 19.412 43.253 19.412C43.3594 19.8485 43.6858 21.2804 43.6858 21.2804H46.9866L44.1074 8.81946ZM39.7462 16.8709C40.0404 16.1525 41.1635 13.3853 41.1635 13.3853C41.1425 13.4185 41.4555 12.6634 41.6352 12.1953L41.8756 13.2703C41.8756 13.2703 42.5568 16.2467 42.6991 16.8708H39.7462V16.8709Z" fill="white"/>
<path d="M3.05814 8.81942L3.0127 9.07892C4.41876 9.40411 5.67464 9.87469 6.77415 10.4602L9.93053 21.2685L13.6942 21.2643L19.2945 8.81942H15.5264L12.0437 17.3224L11.6726 15.5944C11.6554 15.5417 11.6368 15.4887 11.6178 15.4358L10.4067 9.87211C10.1914 9.08256 9.56681 8.84693 8.79421 8.81942H3.05814Z" fill="white"/>
</g>
<defs>
<clipPath id="clip0_8285_3019">
<rect width="50" height="30" fill="white"/>
</clipPath>
</defs>
</svg>
