<svg width="30" height="30" viewBox="0 0 30 30" fill="none" xmlns="http://www.w3.org/2000/svg">
<path d="M29.2963 27.7044L22.2552 20.6647C24.296 18.2146 25.3136 15.072 25.0964 11.8907C24.8792 8.70943 23.4439 5.73434 21.089 3.58434C18.7342 1.43435 15.6411 0.27499 12.4532 0.34744C9.26531 0.41989 6.22808 1.71857 3.97333 3.97333C1.71857 6.22808 0.41989 9.26531 0.34744 12.4532C0.27499 15.6411 1.43435 18.7342 3.58434 21.089C5.73434 23.4439 8.70943 24.8792 11.8907 25.0964C15.072 25.3136 18.2146 24.296 20.6647 22.2552L27.7044 29.2963C27.8089 29.4008 27.933 29.4837 28.0696 29.5403C28.2061 29.5968 28.3525 29.6259 28.5003 29.6259C28.6481 29.6259 28.7945 29.5968 28.9311 29.5403C29.0676 29.4837 29.1917 29.4008 29.2963 29.2963C29.4008 29.1917 29.4837 29.0676 29.5403 28.9311C29.5968 28.7945 29.6259 28.6481 29.6259 28.5003C29.6259 28.3525 29.5968 28.2061 29.5403 28.0696C29.4837 27.933 29.4008 27.8089 29.2963 27.7044ZM2.62532 12.7503C2.62532 10.7478 3.21914 8.79022 4.33169 7.12517C5.44424 5.46012 7.02555 4.16238 8.87565 3.39604C10.7258 2.6297 12.7616 2.42919 14.7256 2.81987C16.6897 3.21055 18.4938 4.17486 19.9098 5.59086C21.3258 7.00687 22.2901 8.81097 22.6808 10.775C23.0714 12.7391 22.8709 14.7749 22.1046 16.625C21.3383 18.4751 20.0405 20.0564 18.3755 21.169C16.7104 22.2815 14.7529 22.8753 12.7503 22.8753C10.0659 22.8723 7.49231 21.8047 5.59415 19.9065C3.69599 18.0083 2.6283 15.4347 2.62532 12.7503Z" fill="#131D4F"/>
</svg>
