<svg width="54" height="58" viewBox="0 0 54 58" fill="none" xmlns="http://www.w3.org/2000/svg">
<path d="M47.849 13.6318H6.15104C5.24794 13.6318 4.51583 14.4182 4.51583 15.3882V42.6114C4.51583 43.5814 5.24794 44.3678 6.15104 44.3678H47.849C48.7521 44.3678 49.4842 43.5814 49.4842 42.6114V15.3882C49.4842 14.4182 48.7521 13.6318 47.849 13.6318Z" fill="#F9F9F9"/>
<path d="M10.0821 18.8887H10.4672V29.8711H10.0821V18.8887ZM10.8523 18.8887H11.2374V29.8711H10.8523V18.8887ZM13.1645 18.8887H13.5496V29.8711H13.1645V18.8887ZM20.6603 18.8887H21.0454V29.8711H20.6603V18.8887ZM23.1662 18.8887H23.5513V29.8711H23.1662V18.8887ZM25.5962 18.8887H25.9813V29.8711H25.5962V18.8887ZM26.2225 18.8887H26.6075V29.8711H26.2225V18.8887ZM26.8496 18.8887H27.2347V29.8711H26.8496V18.8887ZM27.5543 18.8887H27.9394V29.8711H27.5543V18.8887ZM28.2591 18.8887H28.6442V29.8711H28.2591V18.8887ZM30.2181 18.8887H30.6032V29.8711H30.2181V18.8887ZM35.0755 18.8887H35.4606V29.8711H35.0755V18.8887ZM40.1422 18.8887H40.5273V29.8711H40.1422V18.8887ZM41.528 18.8887H41.9131V29.8711H41.528V18.8887ZM42.5296 18.8887H42.9147V29.8711H42.5296V18.8887ZM43.1461 18.8887H43.5312V29.8711H43.1461V18.8887ZM15.7072 18.8887H16.0923V29.8711H15.7072V18.8887ZM11.8538 18.8887H12.5472V29.8711H11.8538V18.8887ZM16.43 18.8887H17.1233V29.8711H16.43V18.8887ZM19.6432 18.8887H20.3365V29.8711H19.6432V18.8887ZM21.2882 18.8887H21.9815V29.8711H21.2882V18.8887ZM23.8735 18.8887H24.5668V29.8711H23.8735V18.8887ZM31.2442 18.8887H32.3226V29.8711H31.2442V18.8887ZM32.6529 18.8887H33.5008V29.8711H32.6529V18.8887ZM34.1393 18.8887H34.8327V29.8711H34.1393V18.8887ZM36.1049 18.8887H37.261V29.8711H36.1049V18.8887ZM38.3688 18.8887H39.5249V29.8711H38.3688V18.8887ZM13.9347 18.8887H15.3213V29.8711H13.9347V18.8887ZM17.5288 18.8887H18.6073V29.8711H17.5288V18.8887Z" fill="#010101"/>
<path d="M10.5808 39.6224V33.3364H12.7769C13.1439 33.3212 13.5099 33.3861 13.8529 33.527C14.1158 33.6477 14.3375 33.8529 14.4874 34.1145C14.6359 34.362 14.7156 34.6499 14.7171 34.9444C14.7171 35.2128 14.6466 35.4758 14.5135 35.7031C14.3637 35.9536 14.1504 36.1529 13.8987 36.2774C14.2218 36.3665 14.5089 36.5667 14.7163 36.8474C14.9082 37.1213 15.0087 37.4566 15.0016 37.7993C15.0038 38.0837 14.9445 38.3648 14.8283 38.6204C14.73 38.8496 14.5823 39.0504 14.3974 39.2061C14.205 39.3542 13.9871 39.4599 13.7564 39.517C13.4471 39.5933 13.1302 39.6287 12.8129 39.6224H10.5808ZM11.3559 35.978H12.6216C12.8688 35.9884 13.1162 35.9639 13.3574 35.9051C13.534 35.857 13.6905 35.747 13.8022 35.5925C13.9062 35.4318 13.9587 35.2391 13.9518 35.0436C13.9554 34.8495 13.9069 34.6583 13.812 34.493C13.7214 34.3361 13.5808 34.2199 13.4163 34.1663C13.1245 34.0942 12.825 34.0647 12.5259 34.0785H11.3559V35.978ZM11.3559 38.8812H12.8129C12.9891 38.8862 13.1655 38.8762 13.3403 38.8513C13.4984 38.8238 13.6501 38.7642 13.7875 38.6757C13.913 38.5886 14.0148 38.4674 14.0826 38.3244C14.1618 38.162 14.2017 37.9809 14.1987 37.7975C14.2042 37.5788 14.1456 37.3638 14.0311 37.1828C13.9182 37.009 13.7545 36.8807 13.5659 36.8184C13.2871 36.7374 12.9985 36.7019 12.7099 36.713H11.3559V38.8812ZM16.1332 36.5611C16.0842 35.6654 16.3653 34.785 16.9156 34.1101C17.175 33.8176 17.4892 33.5874 17.8374 33.4348C18.1857 33.2822 18.5601 33.2107 18.9359 33.2249C19.4493 33.2173 19.9547 33.3613 20.397 33.6412C20.827 33.9142 21.1721 34.3178 21.3888 34.8012C21.6224 35.3276 21.7392 35.9051 21.7297 36.4882C21.7393 37.0811 21.6162 37.6677 21.3708 38.1989C21.1483 38.6823 20.793 39.0808 20.3529 39.3405C19.9178 39.5981 19.4286 39.7317 18.9319 39.7286C18.412 39.7379 17.9003 39.5897 17.4553 39.301C17.027 39.0221 16.684 38.615 16.4684 38.1295C16.2463 37.6412 16.1316 37.1046 16.1332 36.5611ZM16.932 36.5743C16.8987 37.2283 17.104 37.8706 17.5043 38.3648C17.6848 38.5772 17.9057 38.7455 18.152 38.8584C18.3982 38.9713 18.6642 39.0261 18.9319 39.0191C19.2012 39.0264 19.4687 38.9711 19.7163 38.857C19.9638 38.7429 20.1854 38.5726 20.3659 38.3578C20.7698 37.8333 20.9719 37.163 20.9309 36.4838C20.9416 36.024 20.8605 35.567 20.693 35.1437C20.5453 34.7787 20.2993 34.4694 19.9866 34.2559C19.6741 34.045 19.3115 33.9355 18.9425 33.9406C18.681 33.9364 18.4212 33.9878 18.1783 34.092C17.9354 34.1961 17.7141 34.3509 17.5272 34.5474C17.3061 34.8247 17.1394 35.147 17.0371 35.4952C16.9348 35.8433 16.8991 36.21 16.932 36.5734V36.5743ZM22.9995 39.6224V33.3364H23.7737V38.8803H26.6558V39.6224H22.9995ZM27.8969 39.6224V33.3364H32.1288V34.0785H28.6712V36.0034H31.9089V36.7411H28.6712V38.8803H32.2646V39.6224H27.8969ZM35.1262 39.6224V34.0785H33.1975V33.3364H37.8366V34.0785H35.9005V39.6224H35.1262ZM38.5503 36.5611C38.5018 35.6652 38.7835 34.7848 39.3344 34.1101C39.5938 33.8176 39.9079 33.5874 40.2562 33.4348C40.6044 33.2822 40.9788 33.2107 41.3547 33.2249C41.868 33.2173 42.3734 33.3613 42.8158 33.6412C43.2458 33.9142 43.5909 34.3178 43.8075 34.8012C44.0412 35.3276 44.1579 35.9051 44.1485 36.4882C44.158 37.0811 44.0349 37.6677 43.7895 38.1989C43.5663 38.6832 43.2098 39.082 42.7684 39.3414C42.3333 39.599 41.8441 39.7326 41.3474 39.7295C40.8272 39.7387 40.3151 39.5901 39.8699 39.301C39.4426 39.0217 39.1005 38.6146 38.8855 38.1295C38.6634 37.6412 38.5487 37.1046 38.5503 36.5611ZM39.3491 36.5743C39.3158 37.2283 39.5211 37.8706 39.9214 38.3648C40.102 38.5772 40.3228 38.7455 40.5691 38.8584C40.8154 38.9713 41.0813 39.0261 41.349 39.0191C41.619 39.0273 41.8875 38.9725 42.136 38.8585C42.3844 38.7445 42.6068 38.574 42.788 38.3587C43.1918 37.8342 43.3939 37.1639 43.3529 36.4847C43.3613 36.0243 43.2777 35.5673 43.1077 35.1446C42.96 34.7795 42.714 34.4703 42.4013 34.2568C42.0888 34.0458 41.7262 33.9364 41.3572 33.9415C41.0956 33.9372 40.8359 33.9887 40.593 34.0928C40.3501 34.197 40.1288 34.3518 39.9419 34.5483C39.7211 34.8256 39.5548 35.1478 39.4528 35.4958C39.3508 35.8438 39.3153 36.2103 39.3483 36.5734L39.3491 36.5743Z" fill="black"/>
</svg>
