<svg width="50" height="48" viewBox="0 0 50 48" fill="none" xmlns="http://www.w3.org/2000/svg">
<g clip-path="url(#clip0_8409_2777)">
<path d="M47.3333 8.92822H2.66664C1.19388 8.92822 -2.28882e-05 10.0744 -2.28882e-05 11.4882V36.5122C-2.28882e-05 37.9261 1.19388 39.0722 2.66664 39.0722H47.3333C48.8061 39.0722 50 37.9261 50 36.5122V11.4882C50 10.0744 48.8061 8.92822 47.3333 8.92822Z" fill="black"/>
<path d="M28.9339 24C28.9339 30.3451 23.5758 35.4883 16.9667 35.4883C10.3575 35.4883 5 30.3451 5 24C5 17.6555 10.3575 12.5117 16.9667 12.5117C23.5758 12.5117 28.9339 17.6555 28.9339 24Z" fill="#D9222A"/>
<path d="M33.0328 12.5117C29.9408 12.5117 27.1233 13.6379 24.9994 15.4856C24.5669 15.8621 24.1631 16.2688 23.7911 16.7013H26.2089C26.5394 17.0872 26.8439 17.4931 27.1211 17.9181H22.8789C22.6247 18.3088 22.3939 18.7147 22.1894 19.1347H27.8103C28.0022 19.5288 28.1717 19.9344 28.3169 20.3509H21.6828C21.5444 20.7472 21.4281 21.1528 21.335 21.5675H28.6644C28.8403 22.3515 28.9339 23.1653 28.9339 24C28.9339 25.2757 28.7169 26.5032 28.3169 27.6493H21.6828C21.8278 28.0661 21.9972 28.472 22.1892 28.8659H27.8103C27.6053 29.2859 27.375 29.6917 27.1206 30.0827H22.8789C23.1558 30.5069 23.4608 30.9133 23.7911 31.2984H26.2083C25.8369 31.7317 25.4328 32.1389 24.9997 32.5152C27.1236 34.3626 29.9408 35.4883 33.0328 35.4883C39.6419 35.4883 45 30.3451 45 24C45 17.6557 39.6419 12.5117 33.0328 12.5117Z" fill="#EE9F2D"/>
<path d="M43.405 30.4039C43.405 30.1991 43.5778 30.0327 43.7914 30.0327C44.005 30.0327 44.1778 30.1991 44.1778 30.4039C44.1778 30.6087 44.005 30.7751 43.7914 30.7751C43.5778 30.7751 43.405 30.6087 43.405 30.4039ZM43.7914 30.686C43.9536 30.686 44.0853 30.5596 44.0853 30.4039C44.0853 30.2479 43.9536 30.122 43.7914 30.122C43.6289 30.122 43.4978 30.2479 43.4978 30.4039C43.4978 30.5596 43.6289 30.686 43.7914 30.686ZM43.7392 30.5671H43.66V30.241H43.8033C43.8333 30.241 43.8639 30.241 43.8903 30.2572C43.9178 30.2751 43.9333 30.3066 43.9333 30.3391C43.9333 30.3756 43.9108 30.4098 43.8744 30.4231L43.9369 30.5671H43.8492L43.7972 30.438H43.7392V30.5671ZM43.7392 30.382H43.7831C43.7994 30.382 43.8167 30.3834 43.8314 30.3756C43.8444 30.3676 43.8511 30.3527 43.8511 30.3383C43.8511 30.3258 43.8431 30.3114 43.8319 30.3052C43.8181 30.297 43.7961 30.2988 43.7814 30.2988H43.7392V30.382Z" fill="black"/>
<path d="M14.1725 25.2582C14.0361 25.243 13.9761 25.239 13.8825 25.239C13.1461 25.239 12.7733 25.4814 12.7733 25.9601C12.7733 26.2553 12.9553 26.443 13.2392 26.443C13.7683 26.443 14.1497 25.9593 14.1725 25.2582ZM15.1172 27.37H14.0408L14.0656 26.8788C13.7372 27.267 13.2992 27.4516 12.7039 27.4516C11.9997 27.4516 11.5169 26.9236 11.5169 26.1569C11.5169 25.0033 12.3567 24.3302 13.7981 24.3302C13.9453 24.3302 14.1342 24.343 14.3275 24.3668C14.3678 24.2105 14.3783 24.1436 14.3783 24.0596C14.3783 23.7454 14.1519 23.6284 13.545 23.6284C12.9094 23.6214 12.3853 23.7737 12.17 23.8417C12.1836 23.763 12.35 22.7756 12.35 22.7756C12.9975 22.5934 13.4244 22.5249 13.905 22.5249C15.0206 22.5249 15.6114 23.0057 15.6103 23.9145C15.6125 24.158 15.5706 24.4585 15.505 24.8534C15.3922 25.5401 15.1503 27.0113 15.1172 27.37Z" fill="black"/>
<path d="M10.9733 27.3699H9.67417L10.4183 22.8902L8.75667 27.3699H7.87139L7.76194 22.9158L6.97972 27.3699H5.76361L6.77944 21.5425H8.6475L8.76083 24.8043L9.90028 21.5425H11.9781L10.9733 27.3699Z" fill="black"/>
<path d="M34.6383 25.2582C34.5025 25.243 34.4422 25.239 34.3489 25.239C33.6128 25.239 33.24 25.4814 33.24 25.9601C33.24 26.2553 33.4217 26.443 33.7056 26.443C34.2347 26.443 34.6164 25.9593 34.6383 25.2582ZM35.5839 27.37H34.5075L34.5319 26.8788C34.2036 27.267 33.7653 27.4516 33.1706 27.4516C32.4661 27.4516 31.9839 26.9236 31.9839 26.1569C31.9839 25.0033 32.8231 24.3302 34.2647 24.3302C34.4119 24.3302 34.6006 24.343 34.7936 24.3668C34.8339 24.2105 34.8444 24.1436 34.8444 24.0596C34.8444 23.7454 34.6183 23.6284 34.0114 23.6284C33.3758 23.6214 32.8522 23.7737 32.6361 23.8417C32.6497 23.763 32.8167 22.7756 32.8167 22.7756C33.4642 22.5934 33.8908 22.5249 34.3708 22.5249C35.4869 22.5249 36.0778 23.0057 36.0767 23.9145C36.0789 24.158 36.0369 24.4585 35.9714 24.8534C35.8592 25.5401 35.6167 27.0113 35.5839 27.37Z" fill="black"/>
<path d="M20.8911 27.2976C20.5356 27.4051 20.2583 27.4512 19.9578 27.4512C19.2936 27.4512 18.9311 27.0848 18.9311 26.4102C18.9217 26.2008 19.0267 25.6499 19.1092 25.147C19.1842 24.7043 19.6725 21.9131 19.6725 21.9131H20.9639L20.813 22.6304H21.5931L21.4169 23.7694H20.6342C20.4842 24.6707 20.2706 25.7934 20.2681 25.9422C20.2681 26.1864 20.4039 26.2931 20.7128 26.2931C20.8608 26.2931 20.9755 26.2787 21.0631 26.2483L20.8911 27.2976Z" fill="black"/>
<path d="M24.8506 27.2596C24.4069 27.3897 23.9789 27.4526 23.5253 27.4516C22.0797 27.4502 21.3261 26.7254 21.3261 25.3374C21.3261 23.7174 22.2847 22.5249 23.5861 22.5249C24.6508 22.5249 25.3308 23.1926 25.3308 24.2398C25.3308 24.5873 25.2842 24.9265 25.1717 25.4054H22.6C22.5131 26.0929 22.9714 26.3793 23.7225 26.3793C24.1847 26.3793 24.6017 26.2878 25.0653 26.0809L24.8506 27.2596ZM24.1247 24.45C24.1319 24.3513 24.2617 23.6041 23.5239 23.6041C23.1125 23.6041 22.8183 23.9052 22.6986 24.45H24.1247Z" fill="black"/>
<path d="M15.8964 24.1289C15.8964 24.7284 16.1992 25.1417 16.8858 25.4521C17.4119 25.6894 17.4933 25.7598 17.4933 25.975C17.4933 26.2705 17.2614 26.4038 16.7472 26.4038C16.3597 26.4038 15.9992 26.3457 15.5833 26.2169C15.5833 26.2169 15.4125 27.2614 15.4047 27.3113C15.7 27.3732 15.9633 27.4305 16.7567 27.4516C18.1275 27.4516 18.7606 26.9505 18.7606 25.8676C18.7606 25.2164 18.4956 24.8342 17.8447 24.547C17.3 24.307 17.2375 24.2534 17.2375 24.0321C17.2375 23.7758 17.4533 23.6452 17.8733 23.6452C18.1283 23.6452 18.4767 23.6713 18.8067 23.7164L18.9917 22.6172C18.6553 22.566 18.1453 22.5249 17.8483 22.5249C16.395 22.5249 15.8919 23.2537 15.8964 24.1289Z" fill="black"/>
<path d="M31.1689 22.6492C31.5297 22.6492 31.8661 22.7401 32.3297 22.9641L32.5422 21.6993C32.3519 21.6276 31.6819 21.2065 31.1144 21.2065C30.245 21.2065 29.51 21.6207 28.9931 22.3041C28.2392 22.0644 27.9292 22.5489 27.5492 23.0316L27.2117 23.1071C27.2372 22.9481 27.2603 22.7903 27.2525 22.6305H26.0594C25.8964 24.0972 25.6075 25.5828 25.3814 27.0513L25.3225 27.3697H26.6222C26.8392 26.0167 26.9581 25.1503 27.0303 24.5639L27.5197 24.3025C27.5928 24.0415 27.8217 23.9532 28.2808 23.9639C28.2208 24.2732 28.1886 24.5985 28.1886 24.9356C28.1886 26.486 29.06 27.4513 30.4586 27.4513C30.8189 27.4513 31.1281 27.4057 31.6067 27.2812L31.8353 25.9527C31.4047 26.1561 31.0514 26.2519 30.7314 26.2519C29.9761 26.2519 29.5192 25.7167 29.5192 24.8321C29.5192 23.5489 30.1989 22.6492 31.1689 22.6492Z" fill="black"/>
<path d="M11.3472 27.0239H10.0478L10.7925 22.5447L9.13083 27.0239H8.24527L8.13583 22.5703L7.35361 27.0239H6.1375L7.15333 21.1973H9.02139L9.07389 24.8045L10.3342 21.1973H12.3519L11.3472 27.0239Z" fill="white"/>
<path d="M42.1681 21.5425L41.88 23.2262C41.5247 22.7774 41.1431 22.4526 40.6392 22.4526C39.9836 22.4526 39.3869 22.9297 38.9964 23.6318C38.4525 23.5235 37.89 23.3398 37.89 23.3398L37.8897 23.3441C37.9336 22.9515 37.9511 22.7121 37.9472 22.6307H36.7539C36.5914 24.0974 36.3025 25.583 36.0767 27.0515L36.0172 27.3699H37.3167C37.4922 26.2758 37.6267 25.3673 37.7256 24.6467C38.1694 24.2617 38.3917 23.9257 38.8403 23.9481C38.6417 24.4091 38.5253 24.9403 38.5253 25.4851C38.5253 26.6699 39.1497 27.4515 40.0942 27.4515C40.5703 27.4515 40.9356 27.2939 41.2919 26.9286L41.2311 27.3691H42.46L43.4495 21.5425H42.1681ZM40.5433 26.2747C40.1011 26.2747 39.8778 25.9606 39.8778 25.3406C39.8778 24.4091 40.2958 23.7486 40.8853 23.7486C41.3317 23.7486 41.5733 24.0753 41.5733 24.6771C41.5733 25.6166 41.1486 26.2747 40.5433 26.2747Z" fill="black"/>
<path d="M14.5461 24.9128C14.41 24.8976 14.3497 24.8936 14.2564 24.8936C13.52 24.8936 13.1475 25.136 13.1475 25.6147C13.1475 25.9093 13.3294 26.0976 13.6128 26.0976C14.1425 26.0976 14.5239 25.6139 14.5461 24.9128ZM15.4914 27.0237H14.415L14.4394 26.5333C14.1114 26.9208 13.6728 27.1061 13.0781 27.1061C12.3736 27.1061 11.8911 26.5781 11.8911 25.8115C11.8911 24.6573 12.7306 23.9848 14.1722 23.9848C14.3194 23.9848 14.5083 23.9976 14.7014 24.0213C14.7417 23.8651 14.7522 23.7981 14.7522 23.7136C14.7522 23.3995 14.5261 23.2829 13.9192 23.2829C13.2833 23.276 12.7594 23.4283 12.5439 23.4955C12.5575 23.4171 12.7239 22.4307 12.7239 22.4307C13.3711 22.2477 13.7986 22.1792 14.2786 22.1792C15.3944 22.1792 15.9856 22.6603 15.9844 23.5683C15.9864 23.8128 15.9442 24.1131 15.8789 24.5075C15.7664 25.1939 15.5242 26.6659 15.4914 27.0237Z" fill="white"/>
<path d="M32.9164 21.3539L32.7036 22.619C32.2403 22.3953 31.9036 22.3041 31.5431 22.3041C30.5731 22.3041 29.8931 23.2038 29.8931 24.487C29.8931 25.3715 30.3503 25.9065 31.1053 25.9065C31.4253 25.9065 31.7783 25.811 32.2089 25.6073L31.9808 26.9353C31.5019 27.0606 31.1931 27.1062 30.8325 27.1062C29.4342 27.1062 28.5625 26.1409 28.5625 24.5905C28.5625 22.5073 29.7664 21.0513 31.4883 21.0513C32.0556 21.0513 32.7258 21.2822 32.9164 21.3539Z" fill="white"/>
<path d="M35.0125 24.9128C34.8764 24.8976 34.8164 24.8936 34.7228 24.8936C33.9867 24.8936 33.6139 25.136 33.6139 25.6147C33.6139 25.9093 33.7958 26.0976 34.0794 26.0976C34.6086 26.0976 34.9903 25.6139 35.0125 24.9128ZM35.9578 27.0237H34.8811L34.9058 26.5333C34.5775 26.9208 34.1392 27.1061 33.5444 27.1061C32.8403 27.1061 32.3575 26.5781 32.3575 25.8115C32.3575 24.6573 33.1972 23.9848 34.6383 23.9848C34.7858 23.9848 34.9744 23.9976 35.1678 24.0213C35.2078 23.8651 35.2186 23.7981 35.2186 23.7136C35.2186 23.3995 34.9925 23.2829 34.3856 23.2829C33.75 23.276 33.2258 23.4283 33.0103 23.4955C33.0239 23.4171 33.1906 22.4307 33.1906 22.4307C33.8378 22.2477 34.265 22.1792 34.745 22.1792C35.8611 22.1792 36.4519 22.6603 36.4506 23.5683C36.4528 23.8128 36.4108 24.1131 36.3453 24.5075C36.2331 25.1939 35.9903 26.6659 35.9578 27.0237Z" fill="white"/>
<path d="M21.265 26.9521C20.9092 27.0596 20.6319 27.1063 20.3317 27.1063C19.6675 27.1063 19.305 26.7399 19.305 26.0652C19.2958 25.8553 19.4008 25.3049 19.4833 24.802C19.5581 24.3588 20.0464 21.5679 20.0464 21.5679H21.3375L21.1869 22.2855H21.8497L21.6733 23.4239H21.0083C20.8583 24.3257 20.6442 25.4476 20.6419 25.5967C20.6419 25.8417 20.7781 25.9476 21.0867 25.9476C21.2347 25.9476 21.3492 25.9337 21.4369 25.9033L21.265 26.9521Z" fill="white"/>
<path d="M25.2244 26.9141C24.7811 27.0443 24.3525 27.1069 23.8992 27.1061C22.4536 27.1048 21.7 26.38 21.7 24.992C21.7 23.3715 22.6586 22.1792 23.96 22.1792C25.0247 22.1792 25.7047 22.8467 25.7047 23.8944C25.7047 24.2421 25.6581 24.5813 25.5458 25.06H22.9742C22.8872 25.7475 23.3456 26.0341 24.0967 26.0341C24.5586 26.0341 24.9758 25.9424 25.4392 25.7349L25.2244 26.9141ZM24.4983 24.1037C24.5061 24.0053 24.6356 23.2579 23.8975 23.2579C23.4864 23.2579 23.1922 23.5597 23.0725 24.1037H24.4983Z" fill="white"/>
<path d="M16.2703 23.7835C16.2703 24.3829 16.5731 24.7957 17.2597 25.1067C17.7858 25.344 17.8672 25.4147 17.8672 25.6296C17.8672 25.9251 17.635 26.0584 17.1214 26.0584C16.7336 26.0584 16.3731 26.0003 15.9569 25.8715C15.9569 25.8715 15.7867 26.916 15.7789 26.9659C16.0736 27.0277 16.3372 27.0843 17.1306 27.1061C18.5017 27.1061 19.1344 26.6051 19.1344 25.5224C19.1344 24.8709 18.8697 24.4888 18.2186 24.2016C17.6742 23.9611 17.6111 23.9083 17.6111 23.6867C17.6111 23.4307 17.8275 23.2989 18.2472 23.2989C18.5019 23.2989 18.8503 23.3259 19.1808 23.3709L19.3656 22.2715C19.0294 22.2203 18.5194 22.1792 18.2225 22.1792C16.7689 22.1792 16.2661 22.9075 16.2703 23.7835Z" fill="white"/>
<path d="M42.8339 27.0239H41.6047L41.6658 26.5829C41.3094 26.9487 40.9442 27.1063 40.4681 27.1063C39.5236 27.1063 38.8994 26.3247 38.8994 25.1399C38.8994 23.5637 39.8675 22.2349 41.0133 22.2349C41.5172 22.2349 41.8986 22.4325 42.2536 22.881L42.5419 21.1973H43.8233L42.8339 27.0239ZM40.9175 25.929C41.5225 25.929 41.9475 25.2709 41.9475 24.3319C41.9475 23.7301 41.7056 23.4034 41.2592 23.4034C40.67 23.4034 40.2514 24.0637 40.2514 24.9954C40.2514 25.6154 40.4753 25.929 40.9175 25.929Z" fill="white"/>
<path d="M37.1281 22.2855C36.9653 23.7522 36.6764 25.2378 36.4506 26.7055L36.3911 27.0239H37.6906C38.1553 24.1263 38.2678 23.5604 38.9964 23.6314C39.1125 23.0383 39.3286 22.5188 39.4897 22.2567C38.9456 22.1479 38.6417 22.4431 38.2439 23.0039C38.2753 22.7615 38.3328 22.526 38.3214 22.2855H37.1281Z" fill="white"/>
<path d="M26.4333 22.2855C26.2703 23.7522 25.9814 25.2378 25.7556 26.7055L25.6964 27.0239H26.9964C27.4606 24.1263 27.5728 23.5604 28.3011 23.6314C28.4178 23.0383 28.6339 22.5188 28.7944 22.2567C28.2508 22.1479 27.9467 22.4431 27.5492 23.0039C27.5806 22.7615 27.6375 22.526 27.6267 22.2855H26.4333Z" fill="white"/>
<path d="M43.4044 26.6529C43.4044 26.4473 43.5775 26.2817 43.7908 26.2817C44.0044 26.2817 44.1772 26.4473 44.1772 26.6529C44.1772 26.8575 44.0044 27.0239 43.7908 27.0239C43.5775 27.0239 43.4044 26.8575 43.4044 26.6529ZM43.7908 26.9348C43.9533 26.9348 44.0844 26.8084 44.0844 26.6529C44.0844 26.4972 43.9533 26.3708 43.7908 26.3708C43.6286 26.3708 43.4969 26.4972 43.4969 26.6529C43.4969 26.8084 43.6286 26.9348 43.7908 26.9348ZM43.7386 26.8151H43.6594V26.4897H43.8031C43.8328 26.4897 43.8636 26.4903 43.8894 26.506C43.9172 26.5241 43.9331 26.5551 43.9331 26.5876C43.9331 26.6244 43.9106 26.6588 43.8739 26.6719L43.9367 26.8151H43.8486L43.7967 26.6865H43.7386V26.8151ZM43.7386 26.6308H43.7822C43.7986 26.6308 43.8164 26.6319 43.8308 26.6244C43.8439 26.6164 43.8506 26.6012 43.8506 26.5868C43.8506 26.5748 43.8428 26.5604 43.8314 26.5532C43.8178 26.5457 43.7953 26.5479 43.7806 26.5479H43.7386V26.6308Z" fill="white"/>
</g>
<defs>
<clipPath id="clip0_8409_2777">
<rect width="50" height="48" fill="white"/>
</clipPath>
</defs>
</svg>
