<svg width="50" height="30" viewBox="0 0 50 30" fill="none" xmlns="http://www.w3.org/2000/svg">
<g clip-path="url(#clip0_8409_2769)">
<path d="M47.3333 0H2.66667C1.19391 0 0 1.14068 0 2.54777V27.4522C0 28.8593 1.19391 30 2.66667 30H47.3333C48.8061 30 50 28.8593 50 27.4522V2.54777C50 1.14068 48.8061 0 47.3333 0Z" fill="#0E4595"/>
<path d="M18.5465 21.2883L20.7706 8.81934H24.3278L22.1022 21.2883H18.5465Z" fill="white"/>
<path d="M34.9538 9.08815C34.249 8.83554 33.1448 8.56445 31.7656 8.56445C28.2507 8.56445 25.7747 10.2556 25.7536 12.6794C25.7338 14.471 27.5212 15.4705 28.8706 16.0669C30.2552 16.6781 30.7207 17.0679 30.7141 17.6136C30.7053 18.4494 29.6084 18.8313 28.5859 18.8313C27.1621 18.8313 26.4057 18.6423 25.2375 18.1767L24.7791 17.9785L24.2798 20.7699C25.1107 21.1179 26.6471 21.4195 28.2424 21.4351C31.9816 21.4351 34.4091 19.7633 34.4367 17.1751C34.4501 15.7567 33.5024 14.6772 31.4501 13.7873C30.2067 13.2105 29.4452 12.8256 29.4533 12.2415C29.4533 11.7232 30.0978 11.169 31.4904 11.169C32.6537 11.1518 33.4963 11.3941 34.1528 11.6467L34.4716 11.7906L34.9538 9.08815Z" fill="white"/>
<path d="M44.1076 8.81934H41.3589C40.5074 8.81934 39.8702 9.04137 39.4962 9.85335L34.2132 21.2803H37.9486C37.9486 21.2803 38.5594 19.7439 38.6975 19.4065C39.1057 19.4065 42.7344 19.4119 43.2532 19.4119C43.3596 19.8484 43.686 21.2803 43.686 21.2803H46.9868L44.1076 8.81934ZM39.7465 16.8707C40.0407 16.1523 41.1638 13.3852 41.1638 13.3852C41.1428 13.4184 41.4558 12.6633 41.6354 12.1951L41.8759 13.2702C41.8759 13.2702 42.557 16.2465 42.6994 16.8707H39.7465V16.8707Z" fill="white"/>
<path d="M3.0586 8.81934L3.01315 9.07884C4.41922 9.40403 5.6751 9.8746 6.77461 10.4601L9.93099 21.2685L13.6947 21.2642L19.2949 8.81934H15.5268L12.0441 17.3223L11.673 15.5943C11.6559 15.5416 11.6373 15.4886 11.6182 15.4357L10.4072 9.87203C10.1918 9.08248 9.56726 8.84685 8.79466 8.81934H3.0586Z" fill="white"/>
</g>
<defs>
<clipPath id="clip0_8409_2769">
<rect width="50" height="30" fill="white"/>
</clipPath>
</defs>
</svg>
