<svg width="28" height="24" viewBox="0 0 28 24" fill="none" xmlns="http://www.w3.org/2000/svg">
<path d="M27.4005 3.43826H5.20024C5.15701 3.43826 5.11808 3.45372 5.07719 3.46225L4.17421 0.60822C4.16404 0.577383 4.14238 0.554543 4.128 0.526016C4.10335 0.232482 3.85203 0 3.53759 0C3.53703 0 3.53582 0 3.53517 0L0.5976 0.0119084C0.265799 0.0136858 -0.00120956 0.270695 4.12117e-06 0.585914C0.0012178 0.9006 0.26944 1.15477 0.600027 1.15477C0.600588 1.15477 0.601801 1.15477 0.602455 1.15477L3.09068 1.14446L8.83455 19.2904C8.26393 19.7867 7.89974 20.4938 7.89974 21.2871C7.89974 22.7852 9.17531 24 10.7497 24C12.3236 24 13.5997 22.7852 13.5997 21.2871C13.5997 20.8964 13.5097 20.5274 13.3537 20.1922H21.6458C21.4898 20.5275 21.3998 20.8964 21.3998 21.2871C21.3998 22.7852 22.6754 24 24.2498 24C25.8237 24 27.0998 22.7852 27.0998 21.2871C27.0998 19.789 25.8236 18.5742 24.2498 18.5742C23.6522 18.5742 23.0984 18.7507 22.64 19.05H12.359C11.9006 18.7507 11.3473 18.5742 10.7497 18.5742C10.4528 18.5742 10.1719 18.6295 9.90249 18.7095L9.04563 16.0035L24.1623 15.992C24.4268 15.992 24.6447 15.8258 24.7239 15.599C24.7444 15.563 24.7665 15.5282 24.7785 15.487L27.9783 4.25488C27.9988 4.18351 28.0011 4.11206 27.9927 4.04301C27.9933 4.03102 27.9999 4.02133 27.9999 4.00986C28.0006 3.69411 27.7318 3.43826 27.4005 3.43826ZM24.2505 19.716C25.1607 19.716 25.9005 20.4202 25.9005 21.2866C25.9005 22.153 25.1607 22.8573 24.2505 22.8573C23.3402 22.8573 22.6004 22.1531 22.6004 21.2866C22.6005 20.4202 23.3403 19.716 24.2505 19.716ZM10.7504 19.716C11.6606 19.716 12.4004 20.4202 12.4004 21.2866C12.4004 22.153 11.6606 22.8573 10.7504 22.8573C9.84013 22.8573 9.10034 22.1531 9.10034 21.2866C9.10034 20.4202 9.84013 19.716 10.7504 19.716ZM23.7171 14.8503L8.68517 14.8618L5.4313 4.58111H26.6427L23.7171 14.8503Z" fill="black"/>
</svg>
