<svg width="50" height="50" viewBox="0 0 50 50" fill="none" xmlns="http://www.w3.org/2000/svg">
<ellipse cx="24.6575" cy="25" rx="24.6575" ry="25" fill="#131D4F"/>
<path d="M24.6578 14.625C22.4389 14.625 20.2698 15.2921 18.4248 16.542C16.5798 17.7919 15.1418 19.5685 14.2927 21.647C13.4435 23.7255 13.2213 26.0126 13.6542 28.2192C14.0871 30.4257 15.1556 32.4525 16.7247 34.0433C18.2937 35.6342 20.2928 36.7175 22.4691 37.1564C24.6454 37.5953 26.9012 37.3701 28.9512 36.5091C31.0013 35.6482 32.7535 34.1902 33.9862 32.3196C35.219 30.449 35.877 28.2498 35.877 26C35.8739 22.9841 34.6908 20.0927 32.5875 17.9602C30.4842 15.8276 27.6324 14.6282 24.6578 14.625ZM18.8411 33.6016C19.4654 32.6116 20.3255 31.7969 21.342 31.2326C22.3586 30.6682 23.4989 30.3724 24.6578 30.3724C25.8168 30.3724 26.9571 30.6682 27.9736 31.2326C28.9902 31.7969 29.8502 32.6116 30.4745 33.6016C28.8114 34.913 26.7647 35.6249 24.6578 35.6249C22.551 35.6249 20.5042 34.913 18.8411 33.6016ZM21.2058 25.125C21.2058 24.4328 21.4082 23.7561 21.7876 23.1805C22.1669 22.6049 22.706 22.1563 23.3368 21.8914C23.9676 21.6265 24.6617 21.5572 25.3313 21.6923C26.0009 21.8273 26.616 22.1606 27.0988 22.6501C27.5816 23.1396 27.9104 23.7633 28.0436 24.4422C28.1768 25.1211 28.1084 25.8249 27.8471 26.4644C27.5858 27.1039 27.1434 27.6506 26.5757 28.0351C26.008 28.4197 25.3406 28.625 24.6578 28.625C23.7423 28.625 22.8642 28.2563 22.2169 27.5999C21.5695 26.9435 21.2058 26.0533 21.2058 25.125ZM31.7518 32.3886C30.7893 30.9745 29.4359 29.8804 27.8618 29.2441C28.7073 28.5688 29.3243 27.6432 29.627 26.596C29.9296 25.5487 29.9029 24.4319 29.5505 23.4008C29.1981 22.3696 28.5375 21.4755 27.6606 20.8426C26.7837 20.2098 25.7342 19.8697 24.6578 19.8697C23.5815 19.8697 22.5319 20.2098 21.655 20.8426C20.7782 21.4755 20.1176 22.3696 19.7652 23.4008C19.4128 24.4319 19.386 25.5487 19.6887 26.596C19.9913 27.6432 20.6083 28.5688 21.4539 29.2441C19.8798 29.8804 18.5264 30.9745 17.5639 32.3886C16.3476 31.0019 15.5527 29.2883 15.2748 27.4541C14.9968 25.62 15.2478 23.7435 15.9974 22.0506C16.747 20.3577 17.9633 18.9206 19.4998 17.9123C21.0363 16.904 22.8276 16.3676 24.6578 16.3676C26.4881 16.3676 28.2793 16.904 29.8158 17.9123C31.3524 18.9206 32.5687 20.3577 33.3183 22.0506C34.0679 23.7435 34.3188 25.62 34.0409 27.4541C33.763 29.2883 32.968 31.0019 31.7518 32.3886Z" fill="white"/>
</svg>
