<svg width="32" height="32" viewBox="0 0 32 32" fill="none" xmlns="http://www.w3.org/2000/svg">
<path d="M28.6487 26.6249C26.6725 23.2099 23.57 20.8136 19.965 19.7974C21.7177 18.9065 23.1192 17.4512 23.9436 15.6663C24.768 13.8813 24.9673 11.8707 24.5092 9.95871C24.0511 8.04669 22.9624 6.34467 21.4187 5.12708C19.875 3.90949 17.9661 3.24731 16 3.24731C14.0339 3.24731 12.125 3.90949 10.5813 5.12708C9.03755 6.34467 7.94886 8.04669 7.49079 9.95871C7.03272 11.8707 7.23195 13.8813 8.05636 15.6663C8.88077 17.4512 10.2823 18.9065 12.035 19.7974C8.43 20.8124 5.3275 23.2086 3.35125 26.6249C3.29698 26.7103 3.26054 26.8057 3.24413 26.9055C3.22771 27.0053 3.23165 27.1074 3.25572 27.2057C3.27978 27.3039 3.32347 27.3963 3.38416 27.4772C3.44485 27.5581 3.52128 27.626 3.60885 27.6766C3.69642 27.7272 3.79333 27.7596 3.89375 27.7718C3.99416 27.784 4.096 27.7757 4.19315 27.7476C4.2903 27.7194 4.38074 27.6718 4.45903 27.6078C4.53733 27.5437 4.60186 27.4645 4.64875 27.3749C7.05 23.2261 11.2925 20.7499 16 20.7499C20.7075 20.7499 24.95 23.2261 27.3512 27.3749C27.3981 27.4645 27.4627 27.5437 27.541 27.6078C27.6193 27.6718 27.7097 27.7194 27.8068 27.7476C27.904 27.7757 28.0058 27.784 28.1062 27.7718C28.2067 27.7596 28.3036 27.7272 28.3911 27.6766C28.4787 27.626 28.5551 27.5581 28.6158 27.4772C28.6765 27.3963 28.7202 27.3039 28.7443 27.2057C28.7683 27.1074 28.7723 27.0053 28.7559 26.9055C28.7395 26.8057 28.703 26.7103 28.6487 26.6249ZM8.75 11.9999C8.75 10.566 9.1752 9.16427 9.97184 7.97201C10.7685 6.77976 11.9008 5.8505 13.2255 5.30177C14.5503 4.75303 16.008 4.60946 17.4144 4.8892C18.8208 5.16895 20.1126 5.85944 21.1265 6.87337C22.1405 7.8873 22.8309 9.17913 23.1107 10.5855C23.3904 11.9919 23.2469 13.4496 22.6981 14.7744C22.1494 16.0991 21.2201 17.2314 20.0279 18.0281C18.8356 18.8247 17.4339 19.2499 16 19.2499C14.0779 19.2476 12.2352 18.483 10.876 17.1239C9.51689 15.7647 8.75231 13.922 8.75 11.9999Z" fill="#262626"/>
</svg>
