<svg width="38" height="38" viewBox="0 0 38 38" fill="none" xmlns="http://www.w3.org/2000/svg">
<path d="M19 0C13.9609 0 9.12816 2.00178 5.56497 5.56497C2.00178 9.12816 0 13.9609 0 19C0 24.0391 2.00178 28.8718 5.56497 32.435C9.12816 35.9982 13.9609 38 19 38C24.0391 38 28.8718 35.9982 32.435 32.435C35.9982 28.8718 38 24.0391 38 19C38 13.9609 35.9982 9.12816 32.435 5.56497C28.8718 2.00178 24.0391 0 19 0Z" fill="#039BE5"/>
<path d="M21.572 24.0358H26.489L27.261 19.0408H21.571V16.3108C21.571 14.2358 22.249 12.3958 24.19 12.3958H27.309V8.03678C26.761 7.96278 25.602 7.80078 23.412 7.80078C18.839 7.80078 16.158 10.2158 16.158 15.7178V19.0408H11.457V24.0358H16.158V37.7648C17.089 37.9048 18.032 37.9998 19 37.9998C19.875 37.9998 20.729 37.9198 21.572 37.8058V24.0358Z" fill="white"/>
</svg>
