<svg width="31" height="30" viewBox="0 0 31 30" fill="none" xmlns="http://www.w3.org/2000/svg">
<path d="M7.68542 7.4999H7.24625L12.4387 2.4749C14.1308 0.843652 16.8692 0.843652 18.5612 2.4749L23.7537 7.4999H23.3146C22.2812 7.4999 21.306 7.8874 20.5762 8.5999L16.1846 12.8312C15.8035 13.1999 15.1965 13.1999 14.8154 12.8312L10.4237 8.5999C9.69396 7.8874 8.71875 7.4999 7.68542 7.4999Z" fill="#4DB6AC"/>
<path d="M23.3146 22.4999H23.7537L18.5612 27.5249C16.8692 29.1562 14.1308 29.1562 12.4387 27.5249L7.24625 22.4999H7.68542C8.71875 22.4999 9.69396 22.1124 10.4237 21.3999L14.8154 17.1687C15.1965 16.7999 15.8035 16.7999 16.1846 17.1687L20.5762 21.3999C21.306 22.1124 22.2812 22.4999 23.3146 22.4999Z" fill="#4DB6AC"/>
<path d="M28.4425 17.9625L25.0454 21.25H23.3146C22.6235 21.25 21.9777 20.9875 21.4869 20.5188L17.0952 16.2812C16.2169 15.4312 14.7831 15.4312 13.9048 16.2812L9.51312 20.5188C9.02229 20.9875 8.37646 21.25 7.68542 21.25H5.95458L2.5575 17.9625C0.871875 16.325 0.871875 13.675 2.5575 12.0375L5.95458 8.75H7.68542C8.37646 8.75 9.02229 9.0125 9.51312 9.48125L13.9048 13.7188C14.344 14.1438 14.9252 14.3562 15.5 14.3562C16.0748 14.3562 16.656 14.1438 17.0952 13.7188L21.4869 9.48125C21.9777 9.0125 22.6235 8.75 23.3146 8.75H25.0454L28.4425 12.0375C30.1281 13.675 30.1281 16.325 28.4425 17.9625Z" fill="#4DB6AC"/>
</svg>
