<svg width="59" height="48" viewBox="0 0 59 48" fill="none" xmlns="http://www.w3.org/2000/svg">
<path fill-rule="evenodd" clip-rule="evenodd" d="M5.98358 43.303L9.29496 33.468C7.25208 30.59 6.17779 27.324 6.17902 23.979C6.18516 13.514 16.6527 5 29.5172 5C35.7601 5.002 41.6184 6.979 46.0249 10.566C50.4302 14.154 52.8566 18.922 52.8542 23.994C52.8492 34.459 42.3792 42.974 29.5172 42.974H29.5074C25.6023 42.973 21.7636 42.176 18.3551 40.663L5.98358 43.303Z" fill="white"/>
<path fill-rule="evenodd" clip-rule="evenodd" d="M5.98358 43.803C5.82133 43.803 5.664 43.751 5.54723 43.655C5.39358 43.528 5.33335 43.343 5.39113 43.172L8.6349 33.536C6.62398 30.63 5.56321 27.33 5.56567 23.98C5.57058 13.238 16.3147 4.5 29.5172 4.5C35.9212 4.502 41.9379 6.531 46.46 10.213C50.9821 13.896 53.4712 18.79 53.4688 23.994C53.4638 34.735 42.7185 43.474 29.5172 43.474C25.5974 43.473 21.7194 42.686 18.2777 41.197L6.13969 43.786C6.08806 43.798 6.03644 43.803 5.98358 43.803Z" fill="white"/>
<path fill-rule="evenodd" clip-rule="evenodd" d="M29.5172 5C35.7601 5.002 41.6184 6.979 46.0249 10.566C50.4302 14.154 52.8566 18.922 52.8542 23.994C52.8493 34.459 42.3792 42.974 29.5172 42.974H29.5074C25.6023 42.973 21.7636 42.176 18.3551 40.663L5.98358 43.303L9.29495 33.468C7.25208 30.59 6.17779 27.324 6.17902 23.979C6.18516 13.514 16.6527 5 29.5172 5ZM29.5172 4C15.9767 4 4.956 12.962 4.94985 23.979C4.94862 27.346 5.99341 30.664 7.97483 33.601L4.79743 43.04C4.68189 43.385 4.79989 43.753 5.10964 44.007C5.34318 44.199 5.65908 44.304 5.98358 44.304C6.08806 44.304 6.19254 44.293 6.29579 44.271L18.2027 41.731C21.6788 43.199 25.5753 43.974 29.5074 43.975C43.0577 43.975 54.0784 35.012 54.0846 23.995C54.087 18.656 51.534 13.636 46.8964 9.86C42.2563 6.083 36.0846 4.002 29.5172 4Z" fill="#CFD8DC"/>
<path fill-rule="evenodd" clip-rule="evenodd" d="M43.2372 12.8321C39.5742 9.85005 34.7055 8.20705 29.5234 8.20605C18.8247 8.20605 10.1234 15.2821 10.1185 23.9801C10.1173 26.9611 11.1424 29.8631 13.0845 32.3761L13.5466 32.9731L11.5861 38.7941L18.9279 37.2281L19.6372 37.5701C22.6142 39.0081 26.0288 39.7681 29.5098 39.7691H29.5172C40.2085 39.7691 48.9098 32.6921 48.9135 23.9931C48.9147 19.7781 46.9001 15.8141 43.2372 12.8321Z" fill="#40C351"/>
<path fill-rule="evenodd" clip-rule="evenodd" d="M23.6836 16.0449C23.2472 15.2549 22.7875 15.2389 22.3708 15.2249C22.0304 15.2129 21.6419 15.2139 21.2535 15.2139C20.8651 15.2139 20.2333 15.3329 19.6986 15.8079C19.1639 16.2829 17.657 17.4299 17.657 19.7639C17.657 22.0979 19.7466 24.3539 20.0379 24.6699C20.3292 24.9859 24.072 29.9289 29.999 31.8309C34.9243 33.4109 35.9273 33.0969 36.9967 33.0179C38.0661 32.9389 40.447 31.8709 40.9325 30.7629C41.418 29.6549 41.418 28.7059 41.273 28.5079C41.1267 28.3099 40.7383 28.1919 40.1556 27.9539C39.573 27.7159 36.7054 26.5689 36.1707 26.4109C35.636 26.2529 35.2476 26.1739 34.8579 26.6489C34.4695 27.1229 33.3522 28.1919 33.0117 28.5079C32.6713 28.8249 32.3308 28.8649 31.7481 28.6269C31.1655 28.3889 29.2874 27.8889 27.0589 26.2729C25.3258 25.0159 24.1556 23.4629 23.8151 22.9879C23.4746 22.5139 23.7782 22.2569 24.0708 22.0199C24.3326 21.8069 24.6534 21.4659 24.9459 21.1889C25.2373 20.9119 25.3344 20.7139 25.5286 20.3979C25.7228 20.0809 25.6257 19.8039 25.4794 19.5669C25.3356 19.3289 24.2023 16.9829 23.6836 16.0449Z" fill="white"/>
</svg>
