<svg width="26" height="26" viewBox="0 0 26 26" fill="none" xmlns="http://www.w3.org/2000/svg">
<path d="M22.5123 13.5748L15.1998 20.8873C15.0474 21.0398 14.8406 21.1254 14.625 21.1254C14.4094 21.1254 14.2026 21.0398 14.0502 20.8873C13.8977 20.7349 13.812 20.5281 13.812 20.3125C13.812 20.0969 13.8977 19.8901 14.0502 19.7376L19.9763 13.8125H4.0625C3.84701 13.8125 3.64035 13.7269 3.48798 13.5745C3.3356 13.4221 3.25 13.2155 3.25 13C3.25 12.7845 3.3356 12.5778 3.48798 12.4254C3.64035 12.2731 3.84701 12.1875 4.0625 12.1875H19.9763L14.0502 6.26231C13.8977 6.10985 13.812 5.90307 13.812 5.68746C13.812 5.47186 13.8977 5.26508 14.0502 5.11262C14.2026 4.96016 14.4094 4.87451 14.625 4.87451C14.8406 4.87451 15.0474 4.96016 15.1998 5.11262L22.5123 12.4251C22.5879 12.5006 22.6478 12.5902 22.6887 12.6888C22.7296 12.7875 22.7506 12.8932 22.7506 13C22.7506 13.1067 22.7296 13.2125 22.6887 13.3111C22.6478 13.4097 22.5879 13.4993 22.5123 13.5748Z" fill="#131D4F"/>
</svg>
