<svg width="25" height="26" viewBox="0 0 25 26" fill="none" xmlns="http://www.w3.org/2000/svg">
<path d="M23.1363 4H18.1067V3C18.1067 2.20435 17.7887 1.44129 17.2228 0.87868C16.6569 0.316071 15.8893 0 15.0889 0H9.05334C8.25298 0 7.48539 0.316071 6.91945 0.87868C6.35351 1.44129 6.03556 2.20435 6.03556 3V4H1.00593C0.739139 4 0.483277 4.10536 0.294629 4.29289C0.105982 4.48043 0 4.73478 0 5C0 5.26522 0.105982 5.51957 0.294629 5.70711C0.483277 5.89464 0.739139 6 1.00593 6H2.01185V24C2.01185 24.5304 2.22382 25.0391 2.60111 25.4142C2.97841 25.7893 3.49013 26 4.02371 26H20.1185C20.6521 26 21.1638 25.7893 21.5411 25.4142C21.9184 25.0391 22.1304 24.5304 22.1304 24V6H23.1363C23.4031 6 23.659 5.89464 23.8476 5.70711C24.0363 5.51957 24.1423 5.26522 24.1423 5C24.1423 4.73478 24.0363 4.48043 23.8476 4.29289C23.659 4.10536 23.4031 4 23.1363 4ZM8.04742 3C8.04742 2.73478 8.1534 2.48043 8.34205 2.29289C8.53069 2.10536 8.78656 2 9.05334 2H15.0889C15.3557 2 15.6116 2.10536 15.8002 2.29289C15.9889 2.48043 16.0948 2.73478 16.0948 3V4H8.04742V3ZM20.1185 24H4.02371V6H20.1185V24ZM10.0593 11V19C10.0593 19.2652 9.95329 19.5196 9.76464 19.7071C9.57599 19.8946 9.32013 20 9.05334 20C8.78656 20 8.53069 19.8946 8.34205 19.7071C8.1534 19.5196 8.04742 19.2652 8.04742 19V11C8.04742 10.7348 8.1534 10.4804 8.34205 10.2929C8.53069 10.1054 8.78656 10 9.05334 10C9.32013 10 9.57599 10.1054 9.76464 10.2929C9.95329 10.4804 10.0593 10.7348 10.0593 11ZM16.0948 11V19C16.0948 19.2652 15.9889 19.5196 15.8002 19.7071C15.6116 19.8946 15.3557 20 15.0889 20C14.8221 20 14.5663 19.8946 14.3776 19.7071C14.189 19.5196 14.083 19.2652 14.083 19V11C14.083 10.7348 14.189 10.4804 14.3776 10.2929C14.5663 10.1054 14.8221 10 15.0889 10C15.3557 10 15.6116 10.1054 15.8002 10.2929C15.9889 10.4804 16.0948 10.7348 16.0948 11Z" fill="#262626"/>
</svg>
