<svg width="27" height="26" viewBox="0 0 27 26" fill="none" xmlns="http://www.w3.org/2000/svg">
<path d="M25.5779 4H20.0175V3C20.0175 2.20435 19.666 1.44129 19.0403 0.87868C18.4146 0.316071 17.5661 0 16.6812 0H10.0087C9.12391 0 8.27532 0.316071 7.64965 0.87868C7.02399 1.44129 6.67249 2.20435 6.67249 3V4H1.11208C0.817139 4 0.534277 4.10536 0.325721 4.29289C0.117166 4.48043 0 4.73478 0 5C0 5.26522 0.117166 5.51957 0.325721 5.70711C0.534277 5.89464 0.817139 6 1.11208 6H2.22416V24C2.22416 24.5304 2.45849 25.0391 2.87561 25.4142C3.29272 25.7893 3.85844 26 4.44833 26H22.2416C22.8315 26 23.3972 25.7893 23.8144 25.4142C24.2315 25.0391 24.4658 24.5304 24.4658 24V6H25.5779C25.8728 6 26.1557 5.89464 26.3642 5.70711C26.5728 5.51957 26.69 5.26522 26.69 5C26.69 4.73478 26.5728 4.48043 26.3642 4.29289C26.1557 4.10536 25.8728 4 25.5779 4ZM8.89665 3C8.89665 2.73478 9.01382 2.48043 9.22237 2.29289C9.43093 2.10536 9.71379 2 10.0087 2H16.6812C16.9762 2 17.259 2.10536 17.4676 2.29289C17.6761 2.48043 17.7933 2.73478 17.7933 3V4H8.89665V3ZM22.2416 24H4.44833V6H22.2416V24ZM11.1208 11V19C11.1208 19.2652 11.0036 19.5196 10.7951 19.7071C10.5865 19.8946 10.3037 20 10.0087 20C9.71379 20 9.43093 19.8946 9.22237 19.7071C9.01382 19.5196 8.89665 19.2652 8.89665 19V11C8.89665 10.7348 9.01382 10.4804 9.22237 10.2929C9.43093 10.1054 9.71379 10 10.0087 10C10.3037 10 10.5865 10.1054 10.7951 10.2929C11.0036 10.4804 11.1208 10.7348 11.1208 11ZM17.7933 11V19C17.7933 19.2652 17.6761 19.5196 17.4676 19.7071C17.259 19.8946 16.9762 20 16.6812 20C16.3863 20 16.1034 19.8946 15.8949 19.7071C15.6863 19.5196 15.5691 19.2652 15.5691 19V11C15.5691 10.7348 15.6863 10.4804 15.8949 10.2929C16.1034 10.1054 16.3863 10 16.6812 10C16.9762 10 17.259 10.1054 17.4676 10.2929C17.6761 10.4804 17.7933 10.7348 17.7933 11Z" fill="black"/>
</svg>
